<svg width="28" height="32" viewBox="0 0 28 32" fill="none" xmlns="http://www.w3.org/2000/svg">
<path fill-rule="evenodd" clip-rule="evenodd" d="M20.4284 7.24138C20.4018 7.1245 20.3743 7.00737 20.3455 6.89011C19.9707 5.36062 19.3806 3.69865 18.4183 2.38966C17.426 1.03989 15.9773 0 14 0C12.0227 0 10.5739 1.03989 9.58167 2.38966C8.61941 3.69865 8.02924 5.36062 7.65445 6.89013C7.62572 7.00737 7.59811 7.1245 7.57155 7.24138H5.2998C3.05779 7.24138 1.19976 9.01487 1.05063 11.2972L0.00962326 27.2282C-0.154234 29.736 1.79536 31.8621 4.25881 31.8621H23.7411C26.2046 31.8621 28.1542 29.736 27.9904 27.2282L26.9493 11.2972C26.8002 9.01487 24.9422 7.24138 22.7002 7.24138H20.4284ZM8.32185 14.4828C9.13521 14.4828 9.73863 13.8577 9.7414 13.0318C9.74161 12.9974 9.74201 12.9629 9.74258 12.9285C9.74383 12.8522 9.74637 12.7369 9.75158 12.5883C9.76198 12.2908 9.78298 11.8614 9.82521 11.3444C9.85516 10.9776 9.89552 10.5704 9.94969 10.1379H18.0504C18.1044 10.5704 18.1448 10.9776 18.1749 11.3444C18.217 11.8614 18.238 12.2908 18.2484 12.5883C18.2536 12.7369 18.2562 12.8522 18.2575 12.9285C18.258 12.964 18.2585 12.9995 18.2586 13.0351C18.2586 13.0351 18.2586 14.4828 19.6781 14.4828C21.0977 14.4828 21.0977 13.0325 21.0977 13.0325C21.0975 12.9818 21.097 12.931 21.0961 12.8802C21.0946 12.7868 21.0916 12.6532 21.0856 12.4849C21.074 12.1488 21.0506 11.6731 21.004 11.1039C20.9799 10.8071 20.9491 10.4828 20.9102 10.1379H22.7002C23.4476 10.1379 24.0669 10.7291 24.1166 11.4899L25.1576 27.4209C25.2122 28.2569 24.5623 28.9655 23.7411 28.9655H4.25881C3.43766 28.9655 2.7878 28.2569 2.84241 27.4209L3.88341 11.4899C3.93312 10.7291 4.55247 10.1379 5.2998 10.1379H7.0898C7.05087 10.4828 7.02018 10.8071 6.99593 11.1039C6.94944 11.6731 6.92607 12.1488 6.91431 12.4849C6.90842 12.6532 6.90542 12.7868 6.9039 12.8802C6.90308 12.93 6.90247 12.9798 6.90231 13.0295C6.90123 13.8559 7.51034 14.4828 8.32185 14.4828ZM10.4987 7.24138H17.5013C17.1731 6.01501 16.7269 4.9164 16.147 4.12759C15.5423 3.30494 14.8618 2.89655 14 2.89655C13.1382 2.89655 12.4577 3.30494 11.8529 4.12759C11.2731 4.9164 10.8269 6.01501 10.4987 7.24138Z" fill="#0F0F0F" stroke="black" stroke-width="0.02"/>
</svg>
