<svg width="32" height="32" viewBox="0 0 32 32" fill="none" xmlns="http://www.w3.org/2000/svg">
<path d="M21.6351 5.88461L26.078 10.2852M2 30L2.07454 29.4831C2.33829 27.6545 2.47018 26.7402 2.77016 25.8865C3.03636 25.1289 3.39999 24.4086 3.8521 23.7433C4.3616 22.9934 5.02101 22.3402 6.3398 21.0341L24.6368 2.9114C25.8638 1.6962 27.8529 1.6962 29.0799 2.9114C30.3067 4.1266 30.3067 6.09683 29.0799 7.31203L10.4471 25.7671C9.25063 26.9522 8.65243 27.5447 7.97105 28.0158C7.36624 28.434 6.71396 28.7805 6.02758 29.0481C5.25431 29.3496 4.42497 29.5153 2.76646 29.8467L2 30Z" stroke="black" stroke-width="3" stroke-linecap="round" stroke-linejoin="round"/>
</svg>
