<svg width="50" height="50" viewBox="0 0 50 50" fill="none" xmlns="http://www.w3.org/2000/svg">
<path fill-rule="evenodd" clip-rule="evenodd" d="M38.1765 29.5074C37.0678 30.2897 35.1293 31.3893 32.6238 32.0676C32.3193 30.4119 31.1267 29.0424 29.4582 28.53C27.9775 28.0741 26.4694 27.7495 24.9449 27.5343C26.1065 26.5533 26.9089 25.1802 27.1405 23.6083C27.4942 23.5955 27.8644 23.5882 28.2875 23.5882C30.9681 23.6028 33.6341 24.0131 36.2144 24.8064C37.3869 25.1674 38.1765 26.2232 38.1765 27.4359V29.5074ZM30.8823 34.978C29.0388 36.2818 25.5504 38.1765 20.8529 38.1765C18.7632 38.1765 14.7314 37.7534 10.8235 34.978V32.8992C10.8235 31.6883 11.6149 30.6307 12.7893 30.2696C15.4115 29.4673 18.1231 29.0606 20.8529 29.0606H20.9897C23.6794 29.0734 26.3472 29.4819 28.9239 30.2733C30.0946 30.6325 30.8824 31.6883 30.8824 32.8992L30.8823 34.978ZM16.2941 22.6765V20.8529C16.2941 18.3401 18.3383 16.2941 20.8529 16.2941C23.3676 16.2941 25.4118 18.3401 25.4118 20.8529V22.6765C25.4118 25.1911 23.3676 27.2353 20.8529 27.2353C18.3383 27.2353 16.2941 25.1911 16.2941 22.6765ZM28.1471 10.8235C29.3615 10.8235 30.5067 11.2995 31.3692 12.162C32.2299 13.0245 32.7059 14.1679 32.7059 15.3824V17.2059C32.7059 19.7205 30.6617 21.7647 28.1471 21.7647C27.8298 21.7647 27.5271 21.7228 27.2353 21.6608V20.8529C27.2353 18.3274 25.7491 16.1592 23.6156 15.1252C23.7505 12.7346 25.7218 10.8235 28.1471 10.8235ZM36.7505 23.0631C35.2752 22.6108 33.7708 22.2844 32.2336 22.0674C33.6249 20.8967 34.5294 19.1644 34.5294 17.2059V15.3823C34.5294 13.681 33.8656 12.0781 32.6585 10.8728C31.4513 9.66558 29.8502 9 28.1471 9C24.9066 9 22.2516 11.4381 21.8468 14.5727C21.5204 14.5198 21.1939 14.4706 20.8529 14.4706C17.3335 14.4706 14.4706 17.3353 14.4706 20.8529V22.6765C14.4706 24.6349 15.3751 26.3673 16.7682 27.5398C15.2456 27.7532 13.7302 28.0741 12.255 28.5263C10.3093 29.1245 9 30.8823 9 32.8992V35.8971L9.3647 36.1706C13.8086 39.5022 18.4678 40 20.8529 40C26.4111 40 30.4374 37.6002 32.3412 36.1706L32.7059 35.8971V33.9513C36.0192 33.1344 38.4482 31.5935 39.6353 30.7L40 30.4265V27.4359C40 25.4172 38.6925 23.6594 36.7505 23.0631Z" fill="black" stroke="black" stroke-width="0.25"/>
<circle cx="24.8951" cy="24.8951" r="23.8951" stroke="black" stroke-width="2"/>
</svg>
