<svg width="33" height="33" viewBox="0 0 33 33" fill="none" xmlns="http://www.w3.org/2000/svg">
<path fill-rule="evenodd" clip-rule="evenodd" d="M30.1765 21.5074C29.0678 22.2897 27.1293 23.3893 24.6238 24.0676C24.3193 22.4119 23.1267 21.0424 21.4582 20.53C19.9775 20.0741 18.4694 19.7495 16.9449 19.5343C18.1065 18.5533 18.9089 17.1802 19.1405 15.6083C19.4942 15.5955 19.8644 15.5882 20.2875 15.5882C22.9681 15.6028 25.6341 16.0131 28.2144 16.8064C29.3869 17.1674 30.1765 18.2232 30.1765 19.4359V21.5074ZM22.8823 26.978C21.0388 28.2818 17.5504 30.1765 12.8529 30.1765C10.7632 30.1765 6.73135 29.7534 2.82353 26.978V24.8992C2.82353 23.6883 3.61495 22.6307 4.78928 22.2696C7.41153 21.4673 10.1231 21.0606 12.8529 21.0606H12.9897C15.6794 21.0734 18.3472 21.4819 20.9239 22.2733C22.0946 22.6325 22.8824 23.6883 22.8824 24.8992L22.8823 26.978ZM8.29411 14.6765V12.8529C8.29411 10.3401 10.3383 8.29413 12.8529 8.29413C15.3676 8.29413 17.4118 10.3401 17.4118 12.8529V14.6765C17.4118 17.1911 15.3676 19.2353 12.8529 19.2353C10.3383 19.2353 8.29411 17.1911 8.29411 14.6765ZM20.1471 2.82354C21.3615 2.82354 22.5067 3.29949 23.3692 4.16201C24.2299 5.02454 24.7059 6.16789 24.7059 7.38236V9.20588C24.7059 11.7205 22.6617 13.7647 20.1471 13.7647C19.8298 13.7647 19.5271 13.7228 19.2353 13.6608V12.8529C19.2353 10.3274 17.7491 8.15918 15.6156 7.12524C15.7505 4.73459 17.7218 2.82354 20.1471 2.82354ZM28.7505 15.0631C27.2752 14.6108 25.7708 14.2844 24.2336 14.0674C25.6249 12.8967 26.5294 11.1644 26.5294 9.2059V7.38234C26.5294 5.68099 25.8656 4.0781 24.6585 2.87275C23.4513 1.66558 21.8502 1 20.1471 1C16.9066 1 14.2516 3.43805 13.8468 6.5727C13.5204 6.51982 13.1939 6.47057 12.8529 6.47057C9.33353 6.47057 6.4706 9.33533 6.4706 12.8529V14.6765C6.4706 16.6349 7.37505 18.3673 8.76823 19.5398C7.2456 19.7532 5.73023 20.0741 4.255 20.5263C2.3093 21.1245 1 22.8823 1 24.8992V27.8971L1.3647 28.1706C5.80865 31.5022 10.4678 32 12.8529 32C18.4111 32 22.4374 29.6002 24.3412 28.1706L24.7059 27.8971V25.9513C28.0192 25.1344 30.4482 23.5935 31.6353 22.7L32 22.4265V19.4359C32 17.4172 30.6925 15.6594 28.7505 15.0631Z" fill="black" stroke="black" stroke-width="0.25"/>
</svg>
