<svg width="28" height="34" viewBox="0 0 28 34" fill="none" xmlns="http://www.w3.org/2000/svg">
<path d="M13.1483 5.95042L12.3522 7.30902L6.90536 4.09552L6.90543 4.0954L6.89519 4.08968C6.80119 4.03716 6.71875 3.96621 6.65281 3.88108L6.25753 4.18728L6.65281 3.88108C6.58686 3.79595 6.53876 3.6984 6.5114 3.59426C6.48403 3.49011 6.47795 3.38152 6.49353 3.27497C6.5091 3.16842 6.54601 3.0661 6.60205 2.97415C6.65808 2.8822 6.73209 2.80249 6.81964 2.73981C6.90719 2.67712 7.00649 2.63274 7.1116 2.60932C7.2167 2.5859 7.32545 2.58392 7.43133 2.6035C7.53722 2.62308 7.63806 2.66382 7.72784 2.72329L7.73786 2.72993L7.7482 2.73608L13.1483 5.95042Z" fill="black" stroke="black"/>
<path d="M1.38695 6.69458L1.38649 6.69432C1.29534 6.64173 1.21544 6.5717 1.15135 6.48823C1.08726 6.40477 1.04024 6.30949 1.01297 6.20785C0.957898 6.00258 0.986624 5.78384 1.09283 5.59975C1.19904 5.41566 1.37402 5.2813 1.57929 5.22623C1.78447 5.17118 2.0031 5.19985 2.18713 5.30594C2.18722 5.30599 2.18731 5.30604 2.1874 5.30609L12.481 11.2655V13.1106L1.38695 6.69458Z" fill="black" stroke="black"/>
<path d="M14.6141 10.6651V11.5263L15.362 11.0993L25.4989 5.31171C25.6803 5.21789 25.8904 5.19531 26.0878 5.2486C26.2839 5.30156 26.4532 5.42557 26.5628 5.59629C26.6639 5.78151 26.6896 5.9988 26.6342 6.2027C26.5778 6.40982 26.4424 6.5865 26.257 6.69465C26.2567 6.69482 26.2564 6.695 26.2561 6.69517L14.8647 13.2491L14.6141 13.3933V13.6825V32.5155V32.5445L14.6174 32.5732C14.6304 32.6854 14.6196 32.799 14.5855 32.9067C14.5515 33.0144 14.4951 33.1136 14.42 33.198C14.3449 33.2823 14.2528 33.3498 14.1497 33.396C14.0467 33.4422 13.935 33.4661 13.8221 33.4661C13.7092 33.4661 13.5975 33.4422 13.4945 33.396C13.3914 33.3498 13.2993 33.2823 13.2242 33.198C13.1491 33.1136 13.0927 33.0144 13.0587 32.9067C13.0247 32.799 13.0138 32.6854 13.0268 32.5732L13.0302 32.5445V32.5155V7.30121C13.0305 7.14994 13.0702 7.00135 13.1455 6.87012C13.2207 6.73899 13.3288 6.62972 13.4591 6.55307C13.4592 6.55296 13.4594 6.55284 13.4596 6.55273L19.9404 2.77518C20.1181 2.67613 20.3269 2.64843 20.5243 2.6978C20.7194 2.74656 20.8888 2.8669 20.9992 3.03469C21.0971 3.20894 21.1247 3.41417 21.0762 3.60833C21.0272 3.80435 20.9043 3.97378 20.7334 4.08132L14.86 7.54647L14.6141 7.69157V7.97711V10.6651Z" fill="black" stroke="black"/>
<path d="M14.7872 1.4567C14.7872 1.98507 14.3588 2.4134 13.8305 2.4134C13.3021 2.4134 12.8738 1.98507 12.8738 1.4567C12.8738 0.928328 13.3021 0.5 13.8305 0.5C14.3588 0.5 14.7872 0.928328 14.7872 1.4567Z" fill="black" stroke="black"/>
<path d="M9.20083 15.2991L9.20083 15.2991L9.20353 15.3005C9.32411 15.3664 9.42474 15.4635 9.49489 15.5817C9.56504 15.6998 9.60212 15.8346 9.60223 15.972L9.60223 23.047L9.60224 23.0494C9.6029 23.1895 9.56592 23.3273 9.49517 23.4483C9.42442 23.5694 9.32249 23.6692 9.20002 23.7374L9.1996 23.7376C9.07818 23.8054 8.94232 23.843 8.80345 23.8474C8.65714 23.8418 8.51387 23.8038 8.38396 23.7362L0.900898 19.4231C0.900867 19.423 0.900836 19.423 0.900805 19.423C0.900778 19.423 0.900752 19.423 0.900725 19.423C0.716723 19.3167 0.58243 19.1418 0.527375 18.9366C0.472302 18.7313 0.501029 18.5126 0.607235 18.3285C0.713442 18.1444 0.888428 18.01 1.0937 17.955L0.964133 17.472L1.0937 17.955C1.29897 17.8999 1.51771 17.9286 1.7018 18.0348L1.70243 18.0352L7.25175 21.226L8.00099 21.6569V20.7926V16.7346V16.4447L7.74938 16.3007L5.24091 14.8648C5.06722 14.7579 4.9408 14.5887 4.8876 14.3917C4.83465 14.1956 4.85825 13.9868 4.95341 13.8075C5.05769 13.6346 5.22485 13.5084 5.42006 13.4557C5.61795 13.4023 5.8289 13.4286 6.00764 13.5289L6.00764 13.5289L6.00997 13.5302L9.20083 15.2991Z" fill="black" stroke="black"/>
<path d="M3.08161 12.1565C3.08161 12.6848 2.65328 13.1132 2.12491 13.1132C1.59654 13.1132 1.16821 12.6848 1.16821 12.1565C1.16821 11.6281 1.59654 11.1998 2.12491 11.1998C2.65328 11.1998 3.08161 11.6281 3.08161 12.1565Z" fill="black" stroke="black"/>
<path d="M26.926 19.165L27.3226 19.4695L26.926 19.165C26.8619 19.2485 26.782 19.3185 26.6909 19.3711L19.2078 23.6843C19.0779 23.7519 18.9346 23.7899 18.7883 23.7955C18.6494 23.7911 18.5136 23.7534 18.3921 23.6857L18.3917 23.6854C18.2693 23.6172 18.1673 23.5174 18.0966 23.3964C18.0258 23.2754 17.9889 23.1376 17.9895 22.9974V22.9951V15.9719C17.9897 15.8346 18.0267 15.6998 18.0969 15.5817C18.167 15.4636 18.2676 15.3665 18.3882 15.3006L18.3883 15.3007L18.3963 15.2961L21.5854 13.4762C21.7639 13.3765 21.9743 13.3505 22.1717 13.4038C22.3669 13.4565 22.5341 13.5826 22.6383 13.7556C22.7335 13.9348 22.7571 14.1436 22.7041 14.3397C22.6509 14.5368 22.5245 14.706 22.3508 14.8129L19.8424 16.2488L19.5908 16.3928V16.6827V20.7407V21.6049L20.34 21.1741L25.8893 17.9832L25.8899 17.9829C25.9811 17.9303 26.0817 17.8962 26.1861 17.8825C26.2904 17.8688 26.3964 17.8758 26.4981 17.903C26.5997 17.9303 26.695 17.9773 26.7784 18.0414C26.8619 18.1055 26.9319 18.1854 26.9845 18.2765C27.0371 18.3677 27.0712 18.4683 27.0849 18.5727C27.0986 18.677 27.0916 18.783 27.0644 18.8846C27.0371 18.9863 26.9901 19.0816 26.926 19.165ZM17.4895 22.9951V15.9717C17.4897 15.7446 17.551 15.5217 17.6669 15.3265L17.4895 22.9951Z" fill="black" stroke="black"/>
<path d="M26.4583 12.1565C26.4583 12.6848 26.03 13.1132 25.5016 13.1132C24.9733 13.1132 24.5449 12.6848 24.5449 12.1565C24.5449 11.6281 24.9733 11.1998 25.5016 11.1998C26.03 11.1998 26.4583 11.6281 26.4583 12.1565Z" fill="black" stroke="black"/>
</svg>
