<svg width="62" height="62" viewBox="0 0 62 62" fill="none" xmlns="http://www.w3.org/2000/svg">
<circle cx="31" cy="31" r="31" fill="#FF4C81"/>
<path d="M22.2949 20.6719H30.249C31.8799 20.6719 33.2812 20.916 34.4531 21.4043C35.6348 21.8926 36.543 22.6152 37.1777 23.5723C37.8125 24.5293 38.1299 25.7061 38.1299 27.1025C38.1299 28.2451 37.9346 29.2266 37.5439 30.0469C37.1631 30.8574 36.6211 31.5361 35.918 32.083C35.2246 32.6201 34.4092 33.0498 33.4717 33.3721L32.0801 34.1045H25.166L25.1367 30.6768H30.2783C31.0498 30.6768 31.6895 30.54 32.1973 30.2666C32.7051 29.9932 33.0859 29.6123 33.3398 29.124C33.6035 28.6357 33.7354 28.0693 33.7354 27.4248C33.7354 26.7412 33.6084 26.1504 33.3545 25.6523C33.1006 25.1543 32.7148 24.7734 32.1973 24.5098C31.6797 24.2461 31.0303 24.1143 30.249 24.1143H26.6895V42H22.2949V20.6719ZM34.2188 42L29.3555 32.4932L33.999 32.4639L38.9209 41.7949V42H34.2188Z" fill="white"/>
</svg>
