<svg width="308" height="308" viewBox="0 0 308 308" fill="none" xmlns="http://www.w3.org/2000/svg">
<g clip-path="url(#clip0_61_471)">
<path d="M140.206 163.643C134.389 161.267 129.125 158.157 123.811 154.34C117.013 149.452 111.963 141.96 109.018 134.139C108.559 132.926 108.119 131.463 107.698 129.751C107.634 129.492 107.468 129.361 107.202 129.357C107.095 129.355 107 129.42 106.916 129.553C106.875 129.619 106.858 129.696 106.868 129.772C107.305 132.874 108.378 136.086 110.086 139.409C112.775 144.637 116.002 149.416 120.376 153.23C119.359 152.849 118.467 152.249 117.699 151.431C117.438 151.153 117.135 150.967 116.79 150.875C116.672 150.843 116.653 150.873 116.733 150.965C119.982 154.755 124.226 157.54 128.337 160.061C131.403 161.942 134.757 163.63 138.399 165.126C140.378 165.938 142.451 166.641 144.619 167.234C144.785 167.28 144.932 167.377 145.04 167.511C145.148 167.646 145.211 167.811 145.22 167.983L145.377 171.084C145.38 171.151 145.357 171.217 145.313 171.267C145.268 171.317 145.206 171.347 145.139 171.352C144.205 171.42 143.23 171.463 142.215 171.481C138.875 171.544 135.226 171.611 131.27 171.683C129.441 171.719 127.558 171.457 125.685 171.292C119.756 170.775 114.384 167.487 109.698 163.977C109.66 163.948 109.629 163.91 109.609 163.867C109.589 163.824 109.58 163.776 109.583 163.728C109.586 163.681 109.601 163.634 109.626 163.594C109.652 163.553 109.687 163.519 109.728 163.496C111.805 162.305 113.26 160.593 114.092 158.361C114.814 156.436 115.87 151.867 114.041 150.343C113.945 150.26 113.862 150.272 113.792 150.379C113.699 150.521 113.662 150.718 113.68 150.971C113.201 148.533 112.289 146.226 110.943 144.05C110.039 142.592 109.168 141.103 108.329 139.581C106.456 136.176 105.243 132.723 104.624 128.867C104.611 128.786 104.572 128.711 104.513 128.654C104.455 128.596 104.38 128.559 104.299 128.548C102.41 128.292 100.142 127.871 98.5872 126.74C96.3955 125.146 95.2986 123.002 95.2966 120.307C95.2926 114.279 95.2986 108.166 95.3147 101.968C95.3237 98.8488 96.5088 96.0335 99.5467 94.9867C100.036 94.8183 100.528 94.6719 101.023 94.5476C101.246 94.4915 101.367 94.3481 101.387 94.1175C101.577 91.9368 101.667 89.8705 102.019 87.756C104.355 73.6433 111.532 62.6337 123.549 54.7272C123.33 55.4631 123.436 56.0436 123.865 56.4687C111.328 65.074 102.915 78.8679 102.985 94.3882C102.985 94.4593 103.009 94.5284 103.053 94.5845C103.097 94.6406 103.159 94.6806 103.228 94.698C103.75 94.8223 104.267 94.8985 104.78 94.9266C108.921 95.1652 112.951 95.3306 116.872 95.4229C121.865 95.5372 123.357 99.0202 123.35 103.318C123.34 108.732 123.333 114.147 123.329 119.561C123.326 122.334 122.605 124.933 120.132 126.397C119.964 126.496 119.92 126.634 120 126.812C120.026 126.871 120.061 126.919 120.105 126.957C120.308 127.129 120.532 127.169 120.779 127.077C123.672 126.003 124.689 122.406 124.716 119.561C124.766 114.249 124.774 108.841 124.74 103.336C124.73 101.78 124.651 100.67 124.502 100.004C123.883 97.2486 122.385 95.089 119.723 94.0303C118.961 93.7255 117.803 93.548 116.249 93.4979C111.96 93.3615 107.951 93.2422 104.224 93.1399C104.201 93.1396 104.178 93.1346 104.157 93.1252C104.135 93.1159 104.116 93.1025 104.1 93.0857C104.084 93.0689 104.072 93.0491 104.064 93.0274C104.055 93.0057 104.052 92.9826 104.052 92.9595C104.401 81.0846 110.158 69.7933 118.749 61.7534C121.576 59.1065 124.639 56.7544 127.937 54.6971C128.154 54.5617 128.368 54.3091 128.575 54.1437C130.154 55.4701 131.466 56.2551 133.451 56.3003C137.71 56.3905 139.457 52.9135 139.142 49.0183C139.132 48.9055 139.163 48.7929 139.228 48.7005C139.294 48.608 139.39 48.5417 139.499 48.513C141.44 48.0117 143.325 47.5545 145.154 47.1415C146.496 46.8367 148.715 46.4757 151.813 46.0587C153.582 45.82 155.476 45.6777 157.495 45.6315C161.409 45.5413 165.344 45.5965 169.298 45.797C169.488 45.807 169.658 45.8581 169.806 45.9504C169.832 45.9662 169.852 45.9894 169.864 46.017C169.876 46.0445 169.879 46.0751 169.873 46.1045C169.867 46.1339 169.852 46.1609 169.831 46.1817C169.809 46.2025 169.782 46.2163 169.752 46.2211C165.842 46.8828 162.341 48.3747 158.611 50.1794C155.405 51.7294 152.555 53.4829 150.063 55.44C147.843 57.1846 145.783 58.902 143.837 61.1699C139.525 66.197 136.419 71.9108 134.518 78.3114C132.993 83.4528 132.032 88.2462 131.637 92.6918C131.234 97.2276 130.723 101.998 130.705 106.63C130.671 115.073 131.219 123.128 132.034 132.29C132.557 138.181 133.522 144.132 134.928 150.144C135.479 152.5 136.32 155.163 137.451 158.133C137.95 159.444 138.557 160.543 139.271 161.429C139.54 161.762 139.737 162.112 139.863 162.479C139.996 162.858 140.11 163.246 140.206 163.643ZM101.926 95.5733C98.2232 95.6304 96.5268 98.3374 96.5238 101.739C96.5238 107.199 96.5088 112.671 96.4787 118.153C96.4667 120.818 96.4125 122.418 97.7299 124.277C98.6884 125.624 100.127 126.458 102.046 126.779C103.418 127.01 104.887 127.223 106.453 127.42C112.811 128.223 115.151 122.899 115.214 117.536C115.258 113.614 115.264 109.71 115.232 105.824C115.217 104.302 115.326 102.654 114.877 101.288C113.887 98.2763 111.803 96.5378 108.627 96.0726C106.147 95.7096 103.913 95.5432 101.926 95.5733ZM116.64 97.9765C118.026 99.2719 118.727 100.852 118.746 102.717C118.794 107.503 118.811 112.027 118.797 116.288C118.789 118.901 118.758 120.384 118.703 120.737C118.333 123.119 117.061 124.71 115.383 126.349C115.346 126.385 115.316 126.427 115.296 126.475C115.276 126.522 115.265 126.574 115.265 126.626C115.261 126.818 115.335 126.98 115.485 127.11C115.647 127.253 115.832 127.289 116.038 127.218C119.831 125.913 120.887 122.057 120.857 118.469C120.811 113.303 120.798 108.2 120.818 103.159C120.826 101.182 120.212 99.4864 118.977 98.0728C118.634 97.6797 118.211 97.414 117.708 97.2757C117.385 97.1875 117.084 97.1844 116.805 97.2667C116.338 97.407 116.283 97.6436 116.64 97.9765Z" fill="#4F3980"/>
<path d="M178.321 65.853C177.374 66.623 177.984 67.8863 178.466 68.7676C179.028 69.7963 179.004 71.21 178.667 72.2928C177.653 75.5532 174.886 77.6918 171.887 79.0814C170.197 79.8664 168.507 80.6214 166.696 81.1688C159.098 83.4638 150.658 84.2157 142.522 83.1329C140.988 82.9284 139.505 82.763 138.074 82.6366C138.052 82.6346 138.031 82.628 138.013 82.6173C137.994 82.6066 137.978 82.5919 137.965 82.5744C137.952 82.5568 137.943 82.5366 137.939 82.5152C137.934 82.4938 137.934 82.4717 137.938 82.4501C138.103 81.6681 138.305 80.9091 138.546 80.1732C140.008 75.7116 141.882 71.6982 144.17 68.133C145.6 65.9032 147.446 63.7315 149.708 61.618C153.413 58.151 157.68 55.3658 162.506 53.2623C167.537 51.0706 172.76 49.9046 178.174 49.7643C179.224 49.7362 180.004 49.3141 180.511 48.498C180.555 48.4258 180.619 48.3957 180.703 48.4077C181.08 48.4559 181.46 48.5401 181.843 48.6604C188.539 50.7879 194.761 53.891 200.51 57.9696C202.28 59.2268 203.779 60.4681 205.006 61.6932C207.431 64.1175 209.367 66.4335 210.815 68.6413C211.55 69.7602 211.623 70.8931 211.031 72.0401C210.177 73.6884 208.601 74.4855 206.925 75.1833C204.473 76.2019 202.155 76.7784 199.971 76.9128C197.616 77.0571 194.897 77.0812 192.467 76.7564C190.167 76.4476 188.004 76.0295 185.979 75.5021C184.844 75.2053 183.681 74.8785 182.49 74.5216C182.443 74.5076 182.4 74.4837 182.363 74.4515C182.327 74.4193 182.297 74.3796 182.277 74.3351C182.257 74.2906 182.247 74.2423 182.248 74.1935C182.248 74.1447 182.259 74.0966 182.279 74.0523C183.374 71.7123 183.374 68.8518 181.762 66.6381C180.95 65.5222 179.455 64.9327 178.321 65.853Z" fill="#4F3980"/>
<path d="M108.17 99.1766C111.349 99.6759 112.429 102.804 112.408 105.577C112.38 109.161 112.392 112.585 112.444 115.852C112.474 117.789 112.453 120.159 111.476 121.819C110.395 123.646 108.826 124.44 106.768 124.202C104.972 123.993 103.202 123.792 101.46 123.597C98.8277 123.302 98.4878 121.371 98.5119 119.124C98.578 113.319 98.5921 107.373 98.554 101.285C98.545 99.5947 99.1134 98.1449 101.114 98.3284C103.789 98.575 106.141 98.8578 108.17 99.1766ZM107.954 103.35C107.954 103.269 107.938 103.188 107.906 103.113C107.875 103.038 107.829 102.97 107.772 102.912C107.714 102.855 107.646 102.809 107.57 102.778C107.495 102.747 107.415 102.731 107.333 102.732L107.044 102.732C106.963 102.732 106.882 102.748 106.807 102.78C106.732 102.811 106.664 102.857 106.607 102.914C106.549 102.972 106.504 103.04 106.473 103.116C106.442 103.191 106.426 103.271 106.426 103.353L106.455 120.1C106.455 120.182 106.471 120.262 106.503 120.337C106.534 120.412 106.58 120.481 106.637 120.538C106.695 120.596 106.763 120.641 106.839 120.672C106.914 120.703 106.994 120.719 107.076 120.719L107.365 120.718C107.446 120.718 107.526 120.702 107.602 120.671C107.677 120.639 107.745 120.594 107.802 120.536C107.86 120.478 107.905 120.41 107.936 120.335C107.967 120.26 107.983 120.179 107.983 120.098L107.954 103.35Z" fill="#4F3980"/>
<path d="M169.842 186.388L147.702 186.716C147.674 186.716 147.646 186.711 147.62 186.701C147.594 186.69 147.571 186.674 147.551 186.655C147.531 186.635 147.515 186.611 147.505 186.585C147.494 186.559 147.488 186.531 147.488 186.502L147.666 167.761C151.596 169.309 155.6 170.325 159.679 170.811C162.811 171.184 166.087 171.442 169.505 171.587C169.609 171.591 169.707 171.635 169.779 171.71C169.851 171.785 169.891 171.885 169.89 171.99L169.842 186.388ZM168.306 178.738C168.25 178.46 168.032 178.228 167.699 178.091C167.367 177.954 166.948 177.925 166.534 178.009C166.121 178.093 165.747 178.284 165.494 178.54C165.242 178.795 165.132 179.095 165.188 179.372C165.245 179.65 165.463 179.883 165.795 180.019C166.128 180.156 166.547 180.186 166.96 180.101C167.374 180.017 167.748 179.826 168 179.571C168.253 179.315 168.363 179.015 168.306 178.738ZM165.818 184.087C166.886 184.147 168.594 184.009 168.272 182.451C168.248 182.337 168.189 182.233 168.103 182.154C168.016 182.075 167.907 182.026 167.791 182.012C166.75 181.891 164.87 182.069 165.264 183.642C165.335 183.921 165.519 184.069 165.818 184.087Z" fill="#4F3980"/>
<path d="M146.285 176.384C146.199 183.996 146.113 191.599 146.029 199.192C145.997 202.162 145.108 204.632 143.361 206.601C142.345 207.748 140.908 208.449 139.051 208.706C136.418 209.071 133.789 209.376 131.165 209.62C131.217 209.157 130.797 208.829 129.904 208.637C131.895 208.366 133.881 208.106 135.86 207.855C138.25 207.548 139.794 207.223 140.492 206.88C143.512 205.385 144.549 201.936 144.576 198.69C144.641 191.016 144.823 183.341 145.124 175.665L145.458 177.121C145.465 177.151 145.48 177.178 145.502 177.199C145.524 177.22 145.552 177.234 145.582 177.24C145.612 177.245 145.643 177.242 145.671 177.23C145.7 177.218 145.724 177.198 145.74 177.172L146.285 176.384Z" fill="#4F3980"/>
<path d="M169.815 188.999C169.595 189.629 169.483 190.141 169.481 190.536C169.471 193.758 169.439 196.982 169.385 200.206C169.367 201.331 169.651 202.614 170.236 204.056L170.245 206.3C170.245 206.406 170.294 206.478 170.393 206.516C171.57 206.982 172.433 207.29 172.982 207.443C175.834 208.231 178.676 209.016 181.509 209.798C184.012 211.732 186.737 211.994 189.537 212.803C191.113 213.26 192.602 213.588 194.178 213.895C194.325 213.923 194.342 213.987 194.23 214.087C192.004 216.066 189.859 218.28 187.576 220.079C181.833 224.6 175.594 227.859 168.859 229.854C165.247 230.925 161.671 231.441 158.13 231.403C153.608 231.355 149.576 230.836 146.032 229.845C144.46 229.404 142.662 228.818 140.636 228.088C138.812 227.431 137.152 226.758 135.658 226.07C129.757 223.353 123.99 220.135 118.357 216.415C117.329 215.738 116.216 215.173 115.265 214.391C114.917 214.104 114.967 213.941 115.416 213.901C118.173 213.654 120.686 213.199 122.953 212.535C123.409 212.401 123.821 212.165 124.19 211.828C124.266 211.76 124.253 211.726 124.151 211.726L123.302 211.711C128.871 210.893 134.441 210.106 140.014 209.35C141.515 209.148 143.37 208.438 144.387 207.175C146.279 204.82 147.184 201.554 147.296 198.606C147.4 195.903 147.46 192.834 147.476 189.399C147.476 189.343 147.498 189.29 147.538 189.25C147.577 189.211 147.631 189.188 147.687 189.188L169.815 188.999ZM152.083 193.719C152.091 193.504 152.013 193.295 151.866 193.137C151.72 192.979 151.516 192.886 151.301 192.878L149.42 192.809C149.313 192.805 149.207 192.822 149.107 192.859C149.007 192.897 148.915 192.953 148.837 193.026C148.759 193.098 148.696 193.186 148.651 193.283C148.607 193.379 148.582 193.484 148.578 193.591L148.572 193.759C148.564 193.974 148.642 194.184 148.789 194.342C148.935 194.499 149.139 194.593 149.354 194.6L151.235 194.669C151.342 194.673 151.448 194.656 151.548 194.619C151.648 194.582 151.74 194.525 151.818 194.453C151.896 194.38 151.959 194.293 152.004 194.196C152.048 194.099 152.073 193.994 152.077 193.888L152.083 193.719ZM152.098 198.154C152.106 197.954 152.034 197.759 151.898 197.612C151.763 197.465 151.574 197.377 151.374 197.369L149.174 197.281C148.974 197.273 148.779 197.345 148.632 197.481C148.485 197.616 148.397 197.805 148.389 198.005L148.377 198.324C148.369 198.524 148.44 198.719 148.576 198.866C148.712 199.013 148.901 199.1 149.101 199.108L151.301 199.197C151.501 199.205 151.696 199.133 151.843 198.997C151.99 198.861 152.077 198.673 152.085 198.473L152.098 198.154Z" fill="#4F3980"/>
<path d="M225.282 257.042C225.202 257.723 225.183 258.4 225.225 259.072C225.281 259.952 225.254 260.572 225.144 260.931C224.771 262.126 223.956 262.929 222.698 263.34C222.52 263.398 222.439 263.521 222.455 263.71C223.068 270.887 224.058 277.88 224.978 284.999C225.227 286.92 225.509 288.911 225.823 290.973C226.686 296.64 227.5 302.315 228.266 308H227.09L221.423 263.545C221.413 263.468 221.37 263.431 221.294 263.433L219.799 263.49C219.783 263.491 219.768 263.495 219.754 263.502C219.741 263.509 219.728 263.518 219.718 263.53C219.708 263.542 219.701 263.556 219.697 263.571C219.693 263.586 219.691 263.601 219.694 263.617C221.769 279.849 223.218 291.275 224.04 297.894C224.385 300.671 224.749 304.04 225.132 308H210.55C210.379 307.005 210.298 306.002 210.306 304.989C210.339 301.202 210.439 297.578 210.387 293.866C210.327 289.563 210.324 285.254 210.378 280.939C210.388 280.076 210.558 279.143 210.887 278.138C211.013 277.753 211.031 277.377 211.049 276.986C211.232 273.497 211.276 269.321 211.181 264.456C211.18 264.386 211.205 264.319 211.252 264.268C211.3 264.217 211.365 264.186 211.434 264.182L218.593 263.779C218.725 263.771 218.749 263.716 218.665 263.614C218.356 263.241 217.926 263.066 217.375 263.09C215.332 263.181 213.143 263.352 211.206 262.696C211.127 262.67 211.097 262.617 211.115 262.537L211.142 262.429C211.138 262.499 211.19 262.536 211.299 262.54C214.204 262.654 217.109 262.712 220.012 262.714C223.08 262.717 224.897 260.188 224.106 257.252C224.437 257.294 224.829 257.224 225.282 257.042Z" fill="#4F3980"/>
<path d="M107.129 308H86.3423C85.7668 298.916 85.4871 293.126 85.5031 290.63C85.5482 283.348 85.9603 276.102 86.1949 268.826C86.9849 268.55 87.6747 268.415 88.2643 268.423C94.3761 268.503 100.491 268.464 106.609 268.306C106.727 268.303 106.842 268.346 106.928 268.428C107.015 268.509 107.065 268.621 107.069 268.739C107.149 271.203 107.175 273.695 107.147 276.213C107.129 277.787 107.207 279.354 107.21 280.918C107.223 290.088 107.236 295.908 107.25 298.378C107.272 302.17 107.232 305.377 107.129 308Z" fill="#4F3980"/>
<path d="M225.282 257.042C224.829 257.224 224.437 257.294 224.106 257.252C223.454 252.738 222.688 248.242 221.808 243.762C221.375 241.564 220.793 239.114 220.061 236.411C217.865 228.314 213.465 216.65 204.411 214.583C204.391 214.578 204.37 214.579 204.351 214.585C204.331 214.592 204.314 214.603 204.3 214.619C204.287 214.634 204.278 214.653 204.275 214.674C204.271 214.694 204.274 214.715 204.282 214.734C205.36 217.266 206.366 219.927 207.299 222.716C207.84 224.337 208.296 226.119 208.667 228.064C209.505 232.464 210.052 236.9 210.306 241.374C210.705 248.388 210.984 255.406 211.143 262.429L211.115 262.537C211.097 262.617 211.127 262.67 211.206 262.696C213.143 263.352 215.332 263.181 217.375 263.09C217.926 263.066 218.356 263.241 218.665 263.614C218.749 263.716 218.725 263.771 218.593 263.779L211.434 264.182C211.365 264.186 211.3 264.217 211.253 264.268C211.205 264.319 211.18 264.386 211.182 264.456C211.276 269.321 211.232 273.497 211.049 276.986C211.031 277.377 211.013 277.753 210.887 278.138C210.558 279.143 210.389 280.076 210.379 280.939C210.324 285.254 210.327 289.563 210.388 293.866C210.439 297.578 210.339 301.202 210.306 304.989C210.298 306.002 210.38 307.005 210.55 308H209.606L209.572 278.602C209.572 278.576 209.567 278.55 209.556 278.527C209.545 278.504 209.529 278.483 209.509 278.466C209.489 278.45 209.466 278.438 209.441 278.431C209.416 278.424 209.39 278.423 209.365 278.427C204.276 279.317 199.024 280.277 193.857 280.93C173.039 283.563 152.413 283.852 131.98 281.799C124.109 281.009 116.215 279.935 108.296 278.578C108.257 278.571 108.218 278.573 108.179 278.583C108.141 278.593 108.106 278.612 108.076 278.637C108.046 278.662 108.022 278.694 108.005 278.729C107.989 278.765 107.98 278.803 107.981 278.842L107.996 308H107.129C107.232 305.377 107.272 302.17 107.25 298.378C107.236 295.908 107.223 290.087 107.211 280.918C107.208 279.354 107.129 277.787 107.147 276.213C107.175 273.695 107.149 271.203 107.069 268.739C107.065 268.621 107.015 268.509 106.928 268.428C106.842 268.346 106.727 268.303 106.609 268.306C100.491 268.464 94.3762 268.503 88.2643 268.423C87.6748 268.415 86.985 268.55 86.195 268.826C86.1729 268.211 85.806 267.95 85.0941 268.044C84.9999 268.056 84.9497 268.11 84.9437 268.207C84.7312 271.974 84.5076 275.791 84.273 279.657C83.915 285.535 83.8789 291.406 84.1767 297.328C84.3552 300.886 84.5216 304.443 84.676 308H83.0458C82.8112 303.817 82.6086 299.632 82.4382 295.445C82.2116 289.905 82.2487 284.58 82.5495 279.471C82.742 276.2 82.9756 272.749 83.2503 269.118C83.2984 268.49 83.526 267.973 83.9331 267.566C84.0173 267.482 84.0093 267.409 83.909 267.346C81.2411 265.68 81.4005 263.277 81.5148 260.007C81.7454 253.348 82.5385 246.872 83.894 240.58C84.9828 235.527 86.5128 230.832 88.4839 226.494C89.9036 223.368 91.592 220.673 93.5491 218.409C95.4711 216.19 98.4488 214.081 101.156 213.87C101.354 213.856 101.531 213.785 101.685 213.657C104.055 211.687 107.331 211.374 110.324 211.025C114.256 210.562 120.783 209.766 129.904 208.637C130.797 208.829 131.217 209.157 131.165 209.62L111.813 211.897C111.63 211.919 111.615 211.982 111.767 212.084C112.625 212.658 113.085 213.007 114.267 212.878C117.289 212.543 120.301 212.154 123.302 211.711L124.151 211.726C124.253 211.726 124.266 211.76 124.19 211.828C123.821 212.165 123.409 212.401 122.953 212.535C120.686 213.199 118.173 213.654 115.416 213.901C114.967 213.941 114.917 214.104 115.265 214.391C116.216 215.173 117.329 215.738 118.358 216.415C123.99 220.135 129.757 223.353 135.658 226.07C137.152 226.758 138.812 227.431 140.636 228.088C142.662 228.818 144.46 229.404 146.032 229.845C149.576 230.836 153.608 231.355 158.13 231.403C161.671 231.441 165.247 230.925 168.859 229.854C175.594 227.859 181.833 224.6 187.576 220.079C189.859 218.28 192.004 216.066 194.23 214.087C194.342 213.987 194.325 213.923 194.178 213.895C192.602 213.588 191.113 213.26 189.537 212.803C186.737 211.994 184.012 211.732 181.51 209.798L194.272 213.037C194.293 213.044 194.315 213.043 194.336 213.035C194.356 213.028 194.374 213.014 194.386 212.995L195.177 211.87C195.225 211.802 195.209 211.758 195.129 211.738C187.736 209.905 181.382 208.316 176.068 206.971C174.552 206.586 173.293 206.169 172.291 205.719C171.494 205.361 170.916 204.64 170.236 204.056C169.651 202.614 169.367 201.331 169.385 200.206C169.439 196.982 169.471 193.758 169.481 190.536C169.483 190.141 169.595 189.629 169.815 188.999L169.842 186.388L169.89 171.99C169.89 171.885 169.85 171.785 169.779 171.71C169.707 171.635 169.609 171.591 169.505 171.587C166.086 171.442 162.811 171.184 159.679 170.811C155.6 170.325 151.596 169.309 147.666 167.761C147.632 167.604 147.488 167.522 147.236 167.514C146.598 167.499 146.354 167.707 146.348 168.362C146.324 171.045 146.303 173.719 146.285 176.384L145.741 177.172C145.724 177.198 145.7 177.218 145.672 177.23C145.644 177.242 145.613 177.245 145.582 177.24C145.552 177.234 145.525 177.22 145.502 177.199C145.48 177.178 145.465 177.151 145.458 177.121L145.124 175.665L145.199 172.916C145.2 172.887 145.195 172.859 145.184 172.832C145.174 172.806 145.158 172.781 145.138 172.761C145.117 172.741 145.093 172.725 145.067 172.714C145.04 172.704 145.011 172.699 144.983 172.7C141.205 172.796 137.613 172.861 134.206 172.895C131.811 172.919 129.712 172.88 127.907 172.778C120.373 172.354 113.401 168.741 107.923 163.598C107.878 163.555 107.843 163.5 107.824 163.44C107.805 163.38 107.801 163.316 107.814 163.254C107.826 163.192 107.854 163.134 107.895 163.086C107.935 163.038 107.988 163.001 108.047 162.978C112.643 161.219 114.261 155.438 113.68 150.971C113.662 150.718 113.699 150.521 113.792 150.379C113.862 150.272 113.945 150.26 114.041 150.343C115.87 151.867 114.814 156.436 114.092 158.361C113.26 160.593 111.805 162.305 109.728 163.496C109.687 163.519 109.652 163.553 109.626 163.594C109.601 163.634 109.586 163.68 109.583 163.728C109.58 163.776 109.589 163.824 109.609 163.867C109.629 163.91 109.66 163.948 109.698 163.977C114.384 167.487 119.756 170.775 125.685 171.292C127.558 171.457 129.441 171.719 131.27 171.683C135.226 171.611 138.875 171.544 142.215 171.481C143.23 171.463 144.205 171.42 145.139 171.352C145.206 171.347 145.268 171.317 145.313 171.267C145.357 171.217 145.38 171.151 145.377 171.084L145.22 167.983C145.211 167.811 145.148 167.646 145.04 167.511C144.932 167.377 144.785 167.28 144.619 167.234C142.451 166.641 140.378 165.938 138.399 165.126C134.757 163.63 131.403 161.942 128.337 160.061C124.226 157.54 119.982 154.755 116.733 150.965C116.653 150.873 116.672 150.843 116.79 150.875C117.135 150.967 117.438 151.153 117.699 151.431C118.467 152.249 119.359 152.849 120.376 153.23C121.445 154.154 122.761 155.152 124.325 156.223C130.723 160.602 137.207 164.163 144.42 166.272C144.783 166.38 145.138 166.373 145.485 166.251C145.531 166.235 145.573 166.207 145.606 166.17C145.638 166.133 145.661 166.089 145.671 166.041C145.681 165.992 145.679 165.943 145.664 165.896C145.65 165.849 145.623 165.806 145.587 165.773C140.862 161.327 138.423 154.358 137.105 148.023C136.248 143.9 135.517 139.614 135.099 135.523C133.846 123.301 133.564 110.684 134.254 97.6697C135.045 82.6908 139.716 67.3961 152.027 58.0328C157.83 53.6213 164.644 50.6085 172.468 48.9943C173.665 48.7476 174.901 48.7085 176.117 48.5401C176.166 48.5327 176.212 48.5077 176.244 48.47C176.276 48.4323 176.293 48.3844 176.291 48.3356L176.267 47.4483C176.265 47.3916 176.247 47.3369 176.214 47.2913C176.181 47.2458 176.136 47.2113 176.083 47.1926C175.55 47.0041 175.02 46.951 174.492 47.0332C167.093 48.1842 160.298 50.7699 154.108 54.7903C144.709 60.8992 138.501 69.8625 135.514 80.5673C133.421 88.0838 132.609 96.0605 132.413 104.251C132.198 113.13 132.385 121.535 132.972 129.465C133.541 137.138 134.515 145.022 136.504 152.213C137.647 156.352 139.265 160.581 141.849 163.995C142.017 164.216 141.971 164.279 141.71 164.184L140.206 163.643C140.11 163.246 139.996 162.858 139.863 162.479C139.737 162.112 139.54 161.762 139.271 161.429C138.557 160.543 137.95 159.444 137.451 158.133C136.32 155.163 135.479 152.5 134.928 150.144C133.522 144.132 132.557 138.181 132.034 132.29C131.219 123.128 130.671 115.073 130.705 106.63C130.723 101.998 131.234 97.2276 131.637 92.6918C132.032 88.2462 132.993 83.4528 134.518 78.3114C136.419 71.9108 139.525 66.197 143.837 61.1699C145.783 58.902 147.843 57.1846 150.063 55.44C152.555 53.4829 155.405 51.7294 158.611 50.1794C162.341 48.3747 165.842 46.8828 169.752 46.2211C169.782 46.2163 169.809 46.2025 169.831 46.1817C169.852 46.1609 169.867 46.1339 169.873 46.1045C169.879 46.0751 169.876 46.0445 169.864 46.017C169.852 45.9894 169.832 45.9662 169.806 45.9504C169.658 45.8581 169.488 45.807 169.298 45.797C165.344 45.5965 161.409 45.5413 157.495 45.6315C155.476 45.6777 153.582 45.82 151.813 46.0587C148.715 46.4757 146.496 46.8367 145.154 47.1415C143.325 47.5545 141.44 48.0117 139.499 48.513C139.39 48.5417 139.294 48.608 139.228 48.7005C139.163 48.7929 139.132 48.9055 139.141 49.0183C139.457 52.9135 137.71 56.3905 133.451 56.3003C131.466 56.2551 130.154 55.4701 128.575 54.1437C128.659 53.9552 128.643 53.7867 128.527 53.6383C128.498 53.6028 128.457 53.5792 128.412 53.572C128.366 53.5648 128.32 53.5745 128.28 53.5992L123.865 56.4687C123.436 56.0436 123.33 55.4631 123.549 54.7272L127.637 52.3119C127.741 52.2501 127.827 52.161 127.886 52.0541C127.944 51.9471 127.972 51.8263 127.967 51.7043C127.929 50.6917 128.076 49.7031 128.407 48.7386C128.425 48.6864 128.427 48.63 128.415 48.5758C128.402 48.5215 128.374 48.4717 128.334 48.4318L121.281 41.4687C121.203 41.3925 121.117 41.3815 121.022 41.4356C119.563 42.2818 118.215 42.0432 116.98 40.7198C116.013 39.6851 115.033 38.5993 114.038 37.4623C112.567 35.778 113.897 33.6875 115.789 33.1882C116.941 32.8844 117.894 33.3055 118.697 34.1387C120.003 35.4902 121.118 36.7595 122.042 37.9466C122.624 38.6945 122.71 39.4655 122.301 40.2596C122.235 40.3859 122.252 40.5002 122.352 40.6025L129.029 47.3701C129.051 47.3925 129.078 47.4095 129.108 47.4198C129.138 47.4301 129.169 47.4333 129.2 47.4292C129.231 47.4251 129.261 47.4138 129.287 47.3962C129.312 47.3787 129.333 47.3553 129.348 47.328C129.785 46.5259 130.424 45.9293 131.264 45.5383C131.275 45.5333 131.285 45.526 131.293 45.5168C131.301 45.5076 131.307 45.4967 131.311 45.485C131.314 45.4733 131.315 45.4609 131.313 45.4488C131.311 45.4367 131.307 45.4252 131.3 45.415L126.704 38.4008C126.682 38.3658 126.648 38.3402 126.608 38.3285C126.568 38.3169 126.525 38.3201 126.488 38.3376C125.078 38.9753 123.837 38.6655 122.764 37.4082C121.627 36.0747 120.55 34.8746 119.534 33.8078C119.175 33.4329 119.011 32.9847 119.043 32.4633C119.254 28.9532 122.809 28.6224 124.785 30.9655C125.541 31.8618 126.382 32.7742 127.309 33.7026C128.145 34.5417 128.795 36.4066 127.805 37.3901C127.768 37.4266 127.745 37.4744 127.739 37.5257C127.733 37.5771 127.745 37.629 127.772 37.6729C129.178 39.9528 130.626 42.1956 132.118 44.4013C132.269 44.6239 132.449 44.8164 132.66 44.9788C132.695 45.0055 132.735 45.0249 132.778 45.0357C132.821 45.0466 132.866 45.0487 132.909 45.042C135.287 44.657 137.126 45.424 138.426 47.343C138.482 47.4272 138.56 47.4583 138.66 47.4362C139.194 47.3099 139.728 47.1786 140.263 47.0422C151.246 44.273 162.128 43.7356 172.91 45.43C180.514 46.6241 187.925 49.259 194.621 52.9405C204.474 58.3606 213.104 66.3704 216.701 77.2557C219.05 84.3722 219.357 91.5398 219.465 99.5736C219.587 108.719 219.829 118.078 220.19 127.649C220.464 134.93 220.467 142.125 218.325 148.736C215.54 157.336 209.211 163.956 200.898 167.64C196.875 169.423 192.271 170.578 187.086 171.105C181.931 171.631 176.567 171.797 170.994 171.605C170.983 171.604 170.972 171.606 170.962 171.61C170.952 171.614 170.943 171.62 170.935 171.627C170.927 171.635 170.921 171.644 170.916 171.654C170.912 171.664 170.91 171.675 170.91 171.686C170.87 181.078 170.758 190.472 170.573 199.866C170.513 203.084 172.215 204.471 175.049 205.181C183.741 207.357 192.117 209.392 200.176 211.287C201.604 211.622 202.768 212.32 203.668 213.383C203.732 213.459 203.813 213.51 203.912 213.534C208.974 214.716 212.412 217.874 215.167 222.244C218.545 227.604 220.395 233.668 221.88 239.894C222.783 243.682 223.917 249.398 225.282 257.042ZM126.424 36.193L126.491 36.1419C126.588 36.0644 126.65 35.9519 126.665 35.8286C126.679 35.7053 126.645 35.5812 126.569 35.4832C125.43 34.0154 124.141 32.5646 122.701 31.1309C122.512 30.9424 122.327 30.9454 122.144 31.1399L122.027 31.2692C121.82 31.4918 121.834 31.7004 122.066 31.8949C123.406 33.0178 124.653 34.4204 125.808 36.1028C125.98 36.3534 126.186 36.3835 126.424 36.193ZM116.405 35.9314C117.936 36.6743 118.887 38.2835 119.967 39.5648C120.002 39.6064 120.047 39.6393 120.097 39.661C120.147 39.6826 120.201 39.6926 120.256 39.69C120.311 39.6873 120.364 39.6723 120.412 39.6459C120.46 39.6195 120.501 39.5825 120.532 39.5377L120.616 39.4114C120.695 39.2983 120.736 39.1632 120.734 39.025C120.732 38.8869 120.687 38.7527 120.604 38.6414C119.796 37.5626 118.716 36.3544 117.365 35.017C117.022 34.6781 116.649 34.5959 116.246 34.7703C116.174 34.8013 116.116 34.8579 116.081 34.9297C115.864 35.3869 115.972 35.7208 116.405 35.9314ZM134.615 47.331C136.552 48.098 136.753 49.9327 136.296 51.7404C136.23 52.0011 136.325 52.1685 136.582 52.2427C136.895 52.335 137.196 51.969 137.487 51.1449C137.567 50.9203 137.615 50.6897 137.629 50.4531C137.713 49.1898 137.06 47.7972 136.028 47.0061C135.579 46.6632 135.118 46.559 134.645 46.6933C134.011 46.8738 134.001 47.0863 134.615 47.331ZM178.321 65.8531C179.455 64.9327 180.95 65.5222 181.762 66.6381C183.374 68.8519 183.374 71.7123 182.28 74.0524C182.259 74.0966 182.248 74.1447 182.248 74.1935C182.247 74.2423 182.258 74.2906 182.277 74.3351C182.297 74.3796 182.327 74.4193 182.363 74.4515C182.4 74.4837 182.443 74.5076 182.49 74.5216C183.681 74.8785 184.844 75.2054 185.979 75.5021C188.004 76.0295 190.167 76.4476 192.467 76.7564C194.897 77.0812 197.616 77.0572 199.971 76.9128C202.155 76.7784 204.473 76.2019 206.926 75.1833C208.601 74.4855 210.177 73.6884 211.031 72.0401C211.623 70.8932 211.551 69.7602 210.815 68.6413C209.367 66.4336 207.431 64.1176 205.007 61.6933C203.779 60.4681 202.28 59.2269 200.51 57.9696C194.761 53.891 188.539 50.7879 181.843 48.6604C181.46 48.5401 181.08 48.4559 180.703 48.4078C180.619 48.3957 180.555 48.4258 180.511 48.498C180.004 49.3141 179.225 49.7362 178.174 49.7643C172.76 49.9046 167.537 51.0707 162.506 53.2624C157.68 55.3658 153.414 58.1511 149.708 61.6181C147.446 63.7316 145.6 65.9032 144.171 68.133C141.883 71.6982 140.008 75.7117 138.546 80.1733C138.305 80.9092 138.103 81.6681 137.938 82.4502C137.934 82.4717 137.934 82.4939 137.939 82.5153C137.943 82.5367 137.952 82.5568 137.965 82.5744C137.978 82.592 137.994 82.6066 138.013 82.6173C138.032 82.6281 138.052 82.6346 138.074 82.6367C139.505 82.763 140.988 82.9284 142.522 83.1329C150.658 84.2158 159.098 83.4638 166.696 81.1688C168.507 80.6214 170.197 79.8665 171.888 79.0814C174.886 77.6918 177.654 75.5533 178.667 72.2928C179.004 71.21 179.028 69.7963 178.466 68.7676C177.984 67.8863 177.374 66.6231 178.321 65.8531ZM179.6 73.4478C177.678 77.2406 174.21 79.5386 170.293 81.2982C167.013 82.77 163.368 83.8348 159.36 84.4925C152.308 85.6455 145.32 85.6144 138.396 84.3992C138.306 84.3834 138.213 84.4002 138.134 84.4465C138.055 84.4928 137.995 84.5656 137.965 84.6519C137.427 86.2039 139.743 86.4085 140.721 86.5228C148.966 87.4893 156.886 86.9799 164.479 84.9948C168.976 83.8187 173.728 81.7824 177.29 78.7536C179.684 76.7143 182.613 72.5755 181.822 69.282C181.664 68.6303 181.266 68.4197 180.628 68.6503C180.523 68.6879 180.432 68.7582 180.368 68.8512C180.305 68.9441 180.273 69.055 180.276 69.1677C180.318 70.6385 180.276 72.1123 179.6 73.4478ZM200.859 79.692C205.626 79.1476 210.742 77.3549 213.501 73.8208C213.84 73.3876 213.872 72.9244 213.597 72.4311C213.501 72.2567 213.307 72.1775 213.016 72.1935C212.943 72.1973 212.872 72.2164 212.807 72.2496C212.741 72.2827 212.684 72.3292 212.637 72.386C210.773 74.7341 208.276 76.3744 205.148 77.3068C198.113 79.4033 189.974 78.534 182.923 76.3503C182.64 76.2641 182.365 76.241 182.096 76.2812C182.012 76.2943 181.931 76.3246 181.859 76.3702C181.787 76.4158 181.725 76.4757 181.677 76.5462C181.629 76.6167 181.596 76.6963 181.58 76.78C181.565 76.8638 181.566 76.9499 181.585 77.0331C181.774 77.8512 183.419 78.2392 184.144 78.4107C189.673 79.7131 195.306 80.3267 200.859 79.692ZM182.231 78.8949C181.645 78.7385 180.986 78.3926 180.628 77.8993C180.542 77.783 180.446 77.773 180.339 77.8693C176.453 81.3974 171.087 84.0744 166.125 85.5211C157.235 88.1119 148.049 88.6834 138.564 87.2356C138.039 87.1554 137.565 86.9438 137.144 86.601C137.133 86.5913 137.119 86.5848 137.104 86.5822C137.089 86.5796 137.073 86.5809 137.059 86.5861C137.045 86.5913 137.032 86.6001 137.022 86.6116C137.012 86.6232 137.006 86.6372 137.003 86.6521C136.365 90.067 135.897 93.545 135.598 97.0862C134.945 104.82 134.793 112.941 135.144 121.449C135.466 129.261 135.986 136.967 137.397 144.757C138.263 149.553 139.455 153.757 140.973 157.369C141.978 159.759 143.282 161.887 144.886 163.754C146.282 165.373 148.12 166.55 150.4 167.286C154.053 168.463 157.973 169.247 162.16 169.638C166.668 170.057 171.765 170.234 177.452 170.17C182.417 170.116 186.992 169.717 191.177 168.973C203.079 166.858 212.683 160.142 216.851 148.601C218.313 144.549 218.794 139.972 218.915 135.568C218.977 133.236 218.974 131.153 218.906 129.318C218.695 123.707 218.475 118.119 218.244 112.552C217.961 105.677 217.907 98.6984 217.691 92.0391C217.501 86.216 216.617 80.471 214.475 75.054C214.464 75.0249 214.445 74.9992 214.422 74.9791C214.398 74.959 214.369 74.9452 214.339 74.9389C214.308 74.9326 214.277 74.9341 214.247 74.9431C214.217 74.9522 214.19 74.9686 214.168 74.9908C206.177 82.9495 192.01 81.5027 182.231 78.8949ZM196.961 212.21C196.88 212.194 196.817 212.22 196.771 212.288C196.27 213.008 195.71 213.715 195.093 214.409C189.607 220.571 182.899 225.313 174.971 228.636C164.455 233.043 153.752 233.436 142.862 229.815C131.123 225.914 120.589 219.05 110.273 212.213C110.156 212.135 110.028 212.101 109.888 212.111C107.65 212.285 104.693 212.634 102.747 213.88C102.725 213.893 102.707 213.913 102.695 213.936C102.683 213.959 102.678 213.985 102.679 214.011C102.68 214.037 102.688 214.062 102.702 214.084C102.716 214.106 102.736 214.123 102.759 214.135C107.057 216.292 109.668 221.694 110.922 226.305C111.508 228.454 111.877 230.952 112.029 233.797C112.496 242.546 112.712 250.833 112.676 258.657C112.668 260.331 112.603 261.897 112.48 263.355C112.399 264.339 112.736 265.436 112.411 266.348C112.038 267.398 111.021 268.122 109.866 268.062C109.313 268.034 108.759 268.039 108.203 268.077C108.148 268.081 108.095 268.106 108.057 268.147C108.02 268.187 107.998 268.241 107.999 268.297L108.002 277.101C108.001 277.182 108.029 277.26 108.079 277.324C108.129 277.388 108.199 277.433 108.278 277.453C110.149 277.919 112.029 278.319 113.93 278.623C128.428 280.925 143.106 282.054 157.964 282.009C174.715 281.961 191.88 280.65 208.129 277.871C208.544 277.801 208.963 277.706 209.386 277.588C209.5 277.558 209.557 277.483 209.557 277.362C209.479 267.753 209.414 258.464 209.362 249.495C209.32 242.483 208.63 235.369 207.293 228.155C206.516 223.972 205.567 220.395 204.444 217.426C203.806 215.738 202.937 213.666 200.991 213.149C199.73 212.814 198.386 212.501 196.961 212.21ZM106.51 266.955C107.346 266.961 107.938 266.829 108.793 267.01C109.903 267.247 111.036 266.164 111.47 265.265C111.654 264.878 111.743 264.318 111.737 263.584C111.665 255.135 111.626 246.704 111.325 238.204C111.211 234.963 111.111 232.938 111.024 232.128C110.447 226.711 109.012 221.429 105.622 217.363C104.558 216.084 102.663 214.505 100.891 214.683C100.197 214.751 99.5075 214.98 98.8218 215.371C95.1252 217.471 92.2978 220.972 90.3006 224.732C85.831 233.151 83.879 242.776 83.2172 252.41C82.8683 257.479 82.729 260.84 82.7991 262.492C82.9235 265.46 84.4585 266.938 87.4041 266.928C94.8936 266.902 101.262 266.911 106.51 266.955Z" fill="#FF7580"/>
<path d="M176.76 94.4603C172.134 93.7174 168.059 94.6589 164.296 97.402C163.959 97.6466 163.649 97.6165 163.367 97.3118L163.273 97.2095C162.902 96.8085 162.936 96.4445 163.376 96.1177C167.414 93.1199 171.957 92.0391 177.004 92.8752C177.537 92.9615 177.74 93.2672 177.612 93.7926L177.579 93.9189C177.535 94.0953 177.426 94.2488 177.275 94.3491C177.123 94.4493 176.94 94.4891 176.76 94.4603Z" fill="#FF7580"/>
<path d="M204.014 94.5506C203.316 94.5296 202.426 94.713 202.495 93.6032C202.519 93.2202 202.722 93.0106 203.103 92.9745C205.993 92.6978 209.239 93.6272 211.663 95.0559C212.062 95.2905 212.143 95.6064 211.906 96.0034L211.849 96.1027C211.581 96.5558 211.218 96.6521 210.76 96.3914C208.725 95.2404 206.476 94.6268 204.014 94.5506Z" fill="#FF7580"/>
<path d="M200.004 123.844C199.995 124.981 200.841 125.703 201.929 125.796C202.27 125.824 202.614 125.903 202.961 126.033C205.87 127.119 206.772 130.304 205.262 132.954C204.652 134.025 203.987 134.925 203.265 135.655C202.96 135.964 202.633 135.989 202.284 135.731L201.987 135.511C201.596 135.22 201.576 134.908 201.929 134.576C203.466 133.123 205.235 130.16 203.154 128.22C202.23 127.357 200.811 127.658 199.743 126.93C198.137 125.838 198.245 124.424 198.242 122.313C198.224 115.321 198.221 108.378 198.233 101.484C198.233 100.876 198.537 100.591 199.144 100.629L199.298 100.638C199.767 100.669 200.002 100.918 200.004 101.387C200.053 108.871 200.053 116.356 200.004 123.844Z" fill="#FF7580"/>
<path d="M171.012 114.287C171.003 116.802 172.602 118.847 174.582 118.854C176.562 118.861 178.174 116.827 178.183 114.312C178.192 111.797 176.594 109.753 174.613 109.746C172.633 109.739 171.021 111.772 171.012 114.287Z" fill="#FF7580"/>
<path d="M205.158 114.24C205.118 116.76 206.707 118.828 208.707 118.859C210.707 118.891 212.36 116.873 212.4 114.354C212.439 111.834 210.85 109.766 208.85 109.735C206.85 109.703 205.197 111.72 205.158 114.24Z" fill="#FF7580"/>
<path d="M162.245 126.548C162.263 126.693 162.319 126.831 162.407 126.948C162.495 127.065 162.612 127.156 162.747 127.212L164.26 127.85C164.551 127.972 164.666 128.189 164.606 128.5L164.576 128.647C164.569 128.682 164.555 128.715 164.534 128.743C164.514 128.772 164.487 128.796 164.457 128.814C164.426 128.832 164.391 128.843 164.356 128.846C164.32 128.849 164.285 128.845 164.251 128.834C163.154 128.453 162.014 127.984 160.831 127.429C160.799 127.414 160.77 127.393 160.746 127.366C160.722 127.339 160.704 127.308 160.692 127.275C160.681 127.241 160.676 127.205 160.679 127.17C160.682 127.134 160.691 127.1 160.708 127.068C160.918 126.651 161.221 126.326 161.616 126.094C161.665 126.064 161.722 126.048 161.779 126.047C161.837 126.046 161.893 126.06 161.944 126.088C162.118 126.182 162.218 126.335 162.245 126.548Z" fill="#FF7580"/>
<path d="M211.187 129.348C211.897 128.828 212.863 128.286 212.788 127.306C212.785 127.261 212.791 127.216 212.806 127.174C212.821 127.132 212.845 127.094 212.875 127.061C212.906 127.029 212.942 127.003 212.983 126.985C213.024 126.968 213.068 126.959 213.112 126.96C213.638 126.96 214.057 127.176 214.37 127.609C214.436 127.7 214.437 127.791 214.373 127.883C214.2 128.13 213.964 128.307 213.663 128.416C213.565 128.452 213.478 128.507 213.404 128.581L211.831 130.136C211.566 130.397 211.338 130.369 211.145 130.052L211.07 129.935C210.93 129.704 210.969 129.508 211.187 129.348Z" fill="#FF7580"/>
<path d="M156.057 127.934C156.265 128.178 156.544 128.563 156.839 128.689C159.502 129.834 162.188 130.968 164.897 132.091C164.96 132.117 165.017 132.156 165.065 132.205C165.112 132.253 165.149 132.311 165.174 132.375C165.198 132.438 165.21 132.506 165.207 132.574C165.205 132.642 165.188 132.709 165.159 132.771L165.105 132.888C165.002 133.103 164.842 133.161 164.623 133.063C162.301 132.02 159.913 130.987 157.459 129.965C156.713 129.655 155.973 129.55 155.215 129.279C155.143 129.254 155.079 129.212 155.026 129.158C154.973 129.103 154.933 129.037 154.91 128.965C154.887 128.893 154.881 128.816 154.893 128.741C154.905 128.666 154.934 128.595 154.977 128.533L155.374 127.964C155.413 127.911 155.463 127.866 155.52 127.835C155.578 127.803 155.643 127.785 155.708 127.783C155.774 127.78 155.84 127.792 155.9 127.818C155.961 127.844 156.014 127.884 156.057 127.934Z" fill="#FF7580"/>
<path d="M215.227 129.859C215.594 129.243 216.509 129.228 216.692 130.028C216.803 130.512 216.493 130.864 216.009 130.807C215.176 130.711 214.779 131.279 214.105 131.598C213.277 131.987 212.497 132.406 211.765 132.855C211.561 132.979 211.4 132.937 211.284 132.729L211.188 132.548C211.075 132.346 211.118 132.182 211.314 132.058C212.511 131.314 213.724 130.663 214.954 130.106C215.069 130.053 215.165 129.967 215.227 129.859Z" fill="#FF7580"/>
<path d="M163.842 135.249C164.048 135.291 164.138 135.417 164.109 135.625C164.101 135.685 164.083 135.742 164.055 135.794C163.925 136.06 163.713 136.165 163.421 136.107C161.097 135.651 158.899 135.268 156.828 134.958C156.214 134.865 155.571 134.809 154.9 134.789C154.767 134.786 154.64 134.735 154.543 134.644C154.445 134.554 154.384 134.431 154.37 134.299C154.342 134.034 154.414 133.77 154.587 133.508C154.631 133.44 154.698 133.39 154.776 133.368C154.855 133.347 154.938 133.355 155.011 133.39C155.576 133.667 156.112 133.905 156.746 133.995C159.01 134.322 161.375 134.74 163.842 135.249Z" fill="#FF7580"/>
<path d="M211.669 134.702L215.802 134.555C215.842 134.553 215.882 134.559 215.919 134.574C215.956 134.588 215.99 134.61 216.019 134.638C216.048 134.665 216.07 134.699 216.086 134.736C216.101 134.773 216.109 134.812 216.108 134.852L216.096 135.571C216.096 135.611 216.088 135.65 216.072 135.687C216.056 135.723 216.033 135.756 216.004 135.783C215.975 135.81 215.941 135.831 215.903 135.845C215.866 135.859 215.826 135.865 215.787 135.863L211.669 135.655C211.594 135.652 211.523 135.619 211.471 135.565C211.419 135.511 211.39 135.439 211.389 135.364L211.386 134.997C211.386 134.921 211.416 134.847 211.468 134.792C211.521 134.737 211.593 134.705 211.669 134.702Z" fill="#FF7580"/>
<path d="M199.701 146.207L192.212 145.919C191.953 145.909 191.735 146.111 191.725 146.37L191.699 147.025C191.69 147.284 191.891 147.502 192.15 147.512L199.64 147.8C199.899 147.81 200.117 147.608 200.127 147.349L200.152 146.694C200.162 146.435 199.96 146.217 199.701 146.207Z" fill="#FF7580"/>
</g>
<defs>
<clipPath id="clip0_61_471">
<rect width="308" height="308" fill="white"/>
</clipPath>
</defs>
</svg>
