<svg width="62" height="62" viewBox="0 0 62 62" fill="none" xmlns="http://www.w3.org/2000/svg">
<circle cx="31" cy="31" r="31" fill="#FFDA8D"/>
<path d="M34.2646 36.4189C34.2646 36.0381 34.2061 35.6963 34.0889 35.3936C33.9814 35.0811 33.7764 34.7979 33.4736 34.5439C33.1709 34.2803 32.7461 34.0215 32.1992 33.7676C31.6523 33.5137 30.9443 33.25 30.0752 32.9766C29.1084 32.6641 28.1904 32.3125 27.3213 31.9219C26.4619 31.5312 25.7002 31.0771 25.0361 30.5596C24.3818 30.0322 23.8643 29.4219 23.4834 28.7285C23.1123 28.0352 22.9268 27.2295 22.9268 26.3115C22.9268 25.4229 23.1221 24.6172 23.5127 23.8945C23.9033 23.1621 24.4502 22.5371 25.1533 22.0195C25.8564 21.4922 26.6865 21.0869 27.6436 20.8037C28.6104 20.5205 29.6699 20.3789 30.8223 20.3789C32.3945 20.3789 33.7666 20.6621 34.9385 21.2285C36.1104 21.7949 37.0186 22.5713 37.6631 23.5576C38.3174 24.5439 38.6445 25.6719 38.6445 26.9414H34.2793C34.2793 26.3164 34.1475 25.7695 33.8838 25.3008C33.6299 24.8223 33.2393 24.4463 32.7119 24.1729C32.1943 23.8994 31.54 23.7627 30.749 23.7627C29.9873 23.7627 29.3525 23.8799 28.8447 24.1143C28.3369 24.3389 27.9561 24.6465 27.7021 25.0371C27.4482 25.418 27.3213 25.8477 27.3213 26.3262C27.3213 26.6875 27.4092 27.0146 27.585 27.3076C27.7705 27.6006 28.0439 27.874 28.4053 28.1279C28.7666 28.3818 29.2109 28.6211 29.7383 28.8457C30.2656 29.0703 30.876 29.29 31.5693 29.5049C32.7314 29.8564 33.752 30.252 34.6309 30.6914C35.5195 31.1309 36.2617 31.624 36.8574 32.1709C37.4531 32.7178 37.9023 33.3379 38.2051 34.0312C38.5078 34.7246 38.6592 35.5107 38.6592 36.3896C38.6592 37.3174 38.4785 38.1475 38.1172 38.8799C37.7559 39.6123 37.2334 40.2324 36.5498 40.7402C35.8662 41.248 35.0508 41.6338 34.1035 41.8975C33.1562 42.1611 32.0967 42.293 30.9248 42.293C29.8701 42.293 28.8301 42.1562 27.8047 41.8828C26.7793 41.5996 25.8467 41.1748 25.0068 40.6084C24.1768 40.042 23.5127 39.3193 23.0146 38.4404C22.5166 37.5615 22.2676 36.5215 22.2676 35.3203H26.6768C26.6768 35.9844 26.7793 36.5459 26.9844 37.0049C27.1895 37.4639 27.4775 37.835 27.8486 38.1182C28.2295 38.4014 28.6787 38.6064 29.1963 38.7334C29.7236 38.8604 30.2998 38.9238 30.9248 38.9238C31.6865 38.9238 32.3115 38.8164 32.7998 38.6016C33.2979 38.3867 33.6641 38.0889 33.8984 37.708C34.1426 37.3271 34.2646 36.8975 34.2646 36.4189Z" fill="white"/>
</svg>
