<svg width="28" height="33" viewBox="0 0 28 33" fill="none" xmlns="http://www.w3.org/2000/svg">
<path fill-rule="evenodd" clip-rule="evenodd" d="M16.9696 5.49019C16.9696 2.45804 19.4389 0 22.4848 0C25.5307 0 28 2.45804 28 5.49019C28 8.52234 25.5307 10.9804 22.4848 10.9804C20.9468 10.9804 19.5568 10.3533 18.5576 9.34454L10.9228 14.5427C10.9933 14.8935 11.0304 15.2559 11.0304 15.626C11.0304 16.3589 10.8854 17.0596 10.6229 17.7L18.9944 23.2001C19.9446 22.4265 21.1603 21.9607 22.4848 21.9607C25.5307 21.9607 28 24.4188 28 27.451C28 30.4831 25.5307 32.9412 22.4848 32.9412C19.4389 32.9412 16.9696 30.4831 16.9696 27.451C16.9696 26.6568 17.1396 25.9008 17.4452 25.2183L9.14129 19.7626C8.17264 20.6044 6.90381 21.1161 5.51514 21.1161C2.46922 21.1161 0 18.658 0 15.626C0 12.5938 2.46922 10.1358 5.51514 10.1358C7.26666 10.1358 8.82581 10.9484 9.83533 12.2132L17.2347 7.17528C17.0625 6.64356 16.9696 6.07699 16.9696 5.49019Z" fill="black"/>
</svg>
