<svg width="31" height="35" viewBox="0 0 31 35" fill="none" xmlns="http://www.w3.org/2000/svg">
<path fill-rule="evenodd" clip-rule="evenodd" d="M1.0013 25.802C0.923871 30.0774 4.32542 33.6071 8.60082 33.6876H22.0021C26.2776 33.6071 29.679 30.0774 29.6016 25.802L28.7089 16.225C28.4823 12.6144 25.9559 9.56075 22.4515 8.66213C21.7214 8.44971 20.9649 8.34105 20.2043 8.33936H10.3985C9.63808 8.34105 8.88162 8.44971 8.15139 8.66213C4.64934 9.56104 2.12413 12.6124 1.89608 16.2209L1.0013 25.802Z" stroke="black" stroke-width="2" stroke-linecap="round" stroke-linejoin="round"/>
<path d="M22.4514 12.0083V7.87966C22.3744 4.00672 19.1744 0.928358 15.3013 1.00127C11.4282 0.928358 8.22834 4.00672 8.15125 7.87966V12.0063" stroke="black" stroke-width="2" stroke-linecap="round" stroke-linejoin="round"/>
</svg>
